# Blender v2.92.0 OBJ File: ''
# www.blender.org
o Cube_Cube.001
v -2.447520 1.918653 -0.330818
v 0.631202 1.918653 -0.330818
v -2.415921 1.862378 -0.324461
v 0.631202 1.854113 -0.324461
v -2.385537 1.808265 -0.305636
v 0.631202 1.792054 -0.305636
v -2.357534 1.758396 -0.275065
v 0.631202 1.734860 -0.275065
v -2.332990 1.714684 -0.233924
v 0.631202 1.684729 -0.233924
v -2.312847 1.678811 -0.183793
v 0.631202 1.643587 -0.183793
v -2.297879 1.652155 -0.126598
v 0.631202 1.613017 -0.126598
v -2.288662 1.635741 -0.064539
v 0.631202 1.594191 -0.064539
v -2.285550 1.630198 -0.000000
v 0.631202 1.587835 -0.000000
v -2.288662 1.635741 0.064539
v 0.631202 1.594191 0.064539
v -2.297879 1.652155 0.126598
v 0.631202 1.613017 0.126598
v -2.312847 1.678811 0.183793
v 0.631202 1.643587 0.183793
v -2.332990 1.714684 0.233924
v 0.631202 1.684729 0.233924
v -2.357534 1.758396 0.275065
v 0.631202 1.734860 0.275065
v -2.385537 1.808266 0.305636
v 0.631202 1.792054 0.305636
v -2.415921 1.862378 0.324461
v 0.631202 1.854113 0.324461
v -2.447520 1.918653 0.330818
v 0.631202 1.918653 0.330818
v -2.479120 1.974927 0.324461
v 0.631202 1.983192 0.324461
v -2.509504 2.029040 0.305636
v 0.631202 2.045251 0.305636
v -2.537506 2.078910 0.275065
v 0.631202 2.102446 0.275065
v -2.562051 2.122621 0.233923
v 0.631202 2.152577 0.233923
v -2.582194 2.158494 0.183792
v 0.631202 2.193718 0.183792
v -2.597162 2.185150 0.126598
v 0.631202 2.224289 0.126598
v -2.606379 2.201565 0.064539
v 0.631202 2.243114 0.064539
v -2.609491 2.241498 -0.000000
v 0.631202 2.249471 -0.000000
v -2.606379 2.201565 -0.064540
v 0.631202 2.243114 -0.064540
v -2.597162 2.185150 -0.126599
v 0.631202 2.224288 -0.126599
v -2.582194 2.158494 -0.183793
v 0.631202 2.193718 -0.183793
v -2.562051 2.122620 -0.233924
v 0.631202 2.152576 -0.233924
v -2.537506 2.078909 -0.275065
v 0.631202 2.102445 -0.275065
v -2.509504 2.029039 -0.305636
v 0.631202 2.045251 -0.305636
v -2.479119 1.974927 -0.324461
v 0.631202 1.983192 -0.324461
v -1.235451 -0.138391 0.092983
v -1.235451 -0.138391 -0.092983
v 0.214897 -0.138391 0.092983
v 0.214897 -0.138391 -0.092983
v -1.235451 1.629134 -0.092983
v -1.235451 1.620754 -0.064539
v 0.214897 1.608743 -0.092983
v 0.214897 1.600115 -0.064539
v -1.235451 1.614946 -0.000000
v 0.214897 1.593881 -0.000000
v 0.214897 1.600115 0.064539
v -1.235451 1.620754 0.064539
v 0.214897 1.608743 0.092983
v -1.235451 1.629134 0.092983
vt 0.863388 0.571830
vt 0.846677 0.304441
vt 0.863388 0.304441
vt 0.846677 0.571830
vt 0.829965 0.304441
vt 0.829965 0.571830
vt 0.813253 0.304441
vt 0.813253 0.571830
vt 0.796541 0.304441
vt 0.796541 0.571830
vt 0.779830 0.304441
vt 0.779830 0.571830
vt 0.763118 0.304441
vt 0.696271 0.304441
vt 0.679559 0.571830
vt 0.679559 0.304441
vt 0.662847 0.571830
vt 0.662847 0.304441
vt 0.646135 0.571830
vt 0.646135 0.304441
vt 0.629423 0.571830
vt 0.629423 0.304441
vt 0.612712 0.571830
vt 0.612712 0.304441
vt 0.596000 0.571830
vt 0.596000 0.304441
vt 0.579288 0.571830
vt 0.579288 0.304441
vt 0.562576 0.571830
vt 0.562576 0.304441
vt 0.545865 0.571830
vt 0.545865 0.304441
vt 0.529153 0.571830
vt 0.529153 0.304441
vt 0.501934 0.028943
vt 1.006948 0.085594
vt 0.501934 0.085594
vt 1.006948 0.142243
vt 0.501934 0.142243
vt 0.495729 0.304441
vt 0.479017 0.571830
vt 0.479017 0.304441
vt 0.462306 0.571830
vt 0.462306 0.304441
vt 0.445594 0.304441
vt 0.445594 0.571830
vt 0.428882 0.304441
vt 0.999630 0.031270
vt 0.500028 0.087920
vt 0.500028 0.031270
vt 0.999630 0.087920
vt 0.500028 0.144570
vt 0.395458 0.571830
vt 0.378747 0.304441
vt 0.395458 0.304441
vt 0.378747 0.571830
vt 0.362035 0.304441
vt 0.762584 0.586517
vt 0.726215 0.616364
vt 0.423173 0.586517
vt 0.362035 0.571830
vt 0.345323 0.304441
vt 0.345323 0.571830
vt 0.328611 0.304441
vt 0.584650 0.908109
vt 0.590317 0.918897
vt 0.621076 0.908109
vt 0.569000 0.377966
vt 0.319000 0.627966
vt 0.319000 0.377966
vt 0.763118 0.571830
vt 0.754066 0.401136
vt 0.746406 0.571830
vt 0.729694 0.533666
vt 0.746406 0.533706
vt 0.729694 0.304441
vt 0.746406 0.400890
vt 0.729694 0.400708
vt 0.712982 0.571830
vt 0.712982 0.533706
vt 0.712982 0.400890
vt 0.712982 0.304441
vt 0.705323 0.401136
vt 0.705323 0.533762
vt 0.696271 0.571830
vt 0.420000 0.257627
vt 0.652962 0.295865
vt 0.652416 0.382627
vt 0.375000 0.250000
vt 0.606833 0.500000
vt 0.375000 0.500000
vt 0.639435 0.499576
vt 0.640021 0.586339
vt 0.409000 0.624576
vt 0.378980 0.483684
vt 0.610812 0.233684
vt 0.612730 0.483684
vt 1.006948 0.028943
vt 0.495729 0.571830
vt 0.428882 0.571830
vt 0.999630 0.144570
vt 0.684723 0.638543
vt 0.639700 0.652200
vt 0.501035 0.638543
vt 0.592879 0.656812
vt 0.546057 0.652200
vt 0.459542 0.616365
vt 0.393326 0.550149
vt 0.371148 0.508656
vt 0.792431 0.550148
vt 0.357490 0.463634
vt 0.828267 0.463633
vt 0.352879 0.416812
vt 0.832879 0.416812
vt 0.357490 0.369990
vt 0.828267 0.369990
vt 0.371147 0.324968
vt 0.814610 0.324968
vt 0.393326 0.283475
vt 0.423173 0.247106
vt 0.792431 0.283475
vt 0.459542 0.217259
vt 0.762584 0.247106
vt 0.501034 0.195081
vt 0.726215 0.217259
vt 0.546057 0.181423
vt 0.684723 0.195081
vt 0.592879 0.176812
vt 0.639700 0.181423
vt 0.814610 0.508656
vt 0.328611 0.571830
vt 0.596467 0.925541
vt 0.602863 0.927784
vt 0.609258 0.925541
vt 0.615408 0.918897
vt 0.626044 0.893590
vt 0.579682 0.893590
vt 0.630121 0.875898
vt 0.575605 0.875898
vt 0.633150 0.855714
vt 0.635016 0.833813
vt 0.572575 0.855714
vt 0.635646 0.811037
vt 0.570710 0.833813
vt 0.635016 0.788261
vt 0.570710 0.788261
vt 0.633150 0.766360
vt 0.630121 0.746176
vt 0.572575 0.766360
vt 0.626044 0.728484
vt 0.579682 0.728485
vt 0.621076 0.713965
vt 0.584650 0.713966
vt 0.615408 0.703177
vt 0.609258 0.696533
vt 0.590317 0.703177
vt 0.602863 0.694290
vt 0.596467 0.696533
vt 0.575605 0.746176
vt 0.570080 0.811037
vt 0.569000 0.627966
vt 0.746406 0.304441
vt 0.754066 0.533762
vt 0.729694 0.571830
vt 0.653750 0.507627
vt 0.420000 0.507627
vt 0.652962 0.469390
vt 0.653750 0.257627
vt 0.608750 0.250000
vt 0.640833 0.624576
vt 0.409000 0.374576
vt 0.640833 0.374576
vt 0.640021 0.412814
vt 0.378980 0.233684
vn 0.0000 -0.1122 -0.9937
vn -0.0009 -0.3290 -0.9443
vn -0.0028 -0.5238 -0.8518
vn -0.0054 -0.6870 -0.7267
vn -0.0082 -0.8148 -0.5797
vn -0.0109 -0.9074 -0.4201
vn -0.0109 -0.9074 0.4201
vn -0.0082 -0.8148 0.5797
vn -0.0054 -0.6870 0.7267
vn -0.0028 -0.5238 0.8519
vn -0.0009 -0.3290 0.9443
vn 0.0000 -0.1122 0.9937
vn -0.0003 0.1121 0.9937
vn -0.0017 0.3277 0.9448
vn -0.0039 0.5210 0.8535
vn -0.0064 0.6835 0.7300
vn -0.0089 0.8115 0.5843
vn -0.0110 0.9052 0.4248
vn -0.0124 0.9662 0.2574
vn -0.0021 0.8503 0.5262
vn -0.0021 0.8503 -0.5262
vn -0.0124 0.9662 -0.2574
vn -0.0110 0.9052 -0.4248
vn -0.0089 0.8115 -0.5843
vn -0.0064 0.6835 -0.7300
vn -0.0039 0.5210 -0.8535
vn 1.0000 0.0000 0.0000
vn -0.0017 0.3277 -0.9448
vn -0.0003 0.1121 -0.9937
vn -0.8719 -0.4896 0.0000
vn 0.0000 -1.0000 0.0000
vn -0.0129 -0.9671 -0.2539
vn -0.0142 -0.9953 -0.0961
vn -0.0145 -0.9959 -0.0896
vn -0.0142 -0.9953 0.0961
vn -0.0142 -0.9963 0.0849
vn -0.0135 -0.9574 0.2884
vn -1.0000 0.0000 0.0000
vn 0.0000 0.0000 -1.0000
vn -0.0000 0.0000 1.0000
vn -0.0003 -0.0980 -0.9952
vn -0.0016 -0.2903 -0.9569
vn -0.0037 -0.4714 -0.8819
vn -0.0064 -0.6344 -0.7730
vn -0.0092 -0.7730 -0.6344
vn -0.0118 -0.8819 -0.4714
vn -0.0118 -0.8819 0.4714
vn -0.0092 -0.7730 0.6344
vn -0.0064 -0.6344 0.7730
vn -0.0037 -0.4714 0.8819
vn -0.0016 -0.2903 0.9569
vn -0.0003 -0.0980 0.9952
vn -0.0000 0.0980 0.9952
vn -0.0008 0.2903 0.9569
vn -0.0024 0.4714 0.8819
vn -0.0047 0.6344 0.7730
vn -0.0073 0.7730 0.6344
vn -0.0097 0.8819 0.4714
vn -0.0116 0.9569 0.2903
vn -0.0128 0.9951 0.0980
vn -0.0128 0.9951 -0.0980
vn -0.0116 0.9569 -0.2903
vn -0.0097 0.8819 -0.4714
vn -0.0073 0.7730 -0.6344
vn -0.0047 0.6344 -0.7730
vn -0.0024 0.4714 -0.8819
vn -0.0008 0.2903 -0.9569
vn 0.0000 0.0980 -0.9952
vn -0.8578 -0.4546 -0.2399
vn -0.8578 -0.4546 0.2399
vn -0.0136 -0.9591 -0.2826
vn -0.0136 -0.9569 -0.2903
vn -0.0135 -0.9574 -0.2884
vn -0.0145 -0.9951 -0.0980
vn -0.0142 -0.9963 -0.0849
vn -0.0145 -0.9951 0.0980
vn -0.0145 -0.9959 0.0896
vn -0.0136 -0.9569 0.2903
vn -0.0129 -0.9671 0.2539
vn -0.0136 -0.9591 0.2826
s off
f 2/1/1 3/2/1 1/3/1
f 4/4/2 5/5/2 3/2/2
f 6/6/3 7/7/3 5/5/3
f 8/8/4 9/9/4 7/7/4
f 10/10/5 11/11/5 9/9/5
f 12/12/6 13/13/6 11/11/6
f 21/14/7 24/15/7 23/16/7
f 23/16/8 26/17/8 25/18/8
f 25/18/9 28/19/9 27/20/9
f 27/20/10 30/21/10 29/22/10
f 29/22/11 32/23/11 31/24/11
f 31/24/12 34/25/12 33/26/12
f 33/26/13 36/27/13 35/28/13
f 35/28/14 38/29/14 37/30/14
f 37/30/15 40/31/15 39/32/15
f 39/32/16 42/33/16 41/34/16
f 41/35/17 44/36/17 43/37/17
f 43/37/18 46/38/18 45/39/18
f 45/40/19 48/41/19 47/42/19
f 47/42/20 50/43/20 49/44/20
f 50/43/21 51/45/21 49/44/21
f 52/46/22 53/47/22 51/45/22
f 54/48/23 55/49/23 53/50/23
f 56/51/24 57/52/24 55/49/24
f 58/53/25 59/54/25 57/55/25
f 60/56/26 61/57/26 59/54/26
f 10/58/27 8/59/27 58/60/27
f 62/61/28 63/62/28 61/57/28
f 64/63/29 1/64/29 63/62/29
f 59/65/30 61/66/30 7/67/30
f 68/68/31 65/69/31 66/70/31
f 13/13/32 14/71/32 69/72/32
f 16/73/33 74/74/33 72/75/33
f 17/76/34 70/77/34 73/78/34
f 74/74/35 20/79/35 75/80/35
f 17/76/36 76/81/36 19/82/36
f 78/83/37 77/84/37 22/85/37
f 65/86/38 76/87/38 73/88/38
f 66/89/39 71/90/39 68/91/39
f 74/92/27 75/93/27 67/94/27
f 65/95/40 77/96/40 78/97/40
f 2/1/41 4/4/41 3/2/41
f 4/4/42 6/6/42 5/5/42
f 6/6/43 8/8/43 7/7/43
f 8/8/44 10/10/44 9/9/44
f 10/10/45 12/12/45 11/11/45
f 12/12/46 14/71/46 13/13/46
f 21/14/47 22/85/47 24/15/47
f 23/16/48 24/15/48 26/17/48
f 25/18/49 26/17/49 28/19/49
f 27/20/50 28/19/50 30/21/50
f 29/22/51 30/21/51 32/23/51
f 31/24/52 32/23/52 34/25/52
f 33/26/53 34/25/53 36/27/53
f 35/28/54 36/27/54 38/29/54
f 37/30/55 38/29/55 40/31/55
f 39/32/56 40/31/56 42/33/56
f 41/35/57 42/98/57 44/36/57
f 43/37/58 44/36/58 46/38/58
f 45/40/59 46/99/59 48/41/59
f 47/42/60 48/41/60 50/43/60
f 50/43/61 52/46/61 51/45/61
f 52/46/62 54/100/62 53/47/62
f 54/48/63 56/51/63 55/49/63
f 56/51/64 58/101/64 57/52/64
f 58/53/65 60/56/65 59/54/65
f 60/56/66 62/61/66 61/57/66
f 6/102/27 4/103/27 62/104/27
f 4/103/27 2/105/27 64/106/27
f 62/104/27 4/103/27 64/106/27
f 62/104/27 60/107/27 6/102/27
f 60/107/27 58/60/27 8/59/27
f 6/102/27 60/107/27 8/59/27
f 58/60/27 56/108/27 10/58/27
f 56/108/27 54/109/27 12/110/27
f 10/58/27 56/108/27 12/110/27
f 54/109/27 52/111/27 16/112/27
f 52/111/27 50/113/27 18/114/27
f 50/113/27 48/115/27 20/116/27
f 48/115/27 46/117/27 22/118/27
f 46/117/27 44/119/27 22/118/27
f 44/119/27 42/120/27 24/121/27
f 22/118/27 44/119/27 24/121/27
f 42/120/27 40/122/27 26/123/27
f 40/122/27 38/124/27 28/125/27
f 26/123/27 40/122/27 28/125/27
f 38/124/27 36/126/27 30/127/27
f 36/126/27 34/128/27 32/129/27
f 30/127/27 36/126/27 32/129/27
f 30/127/27 28/125/27 38/124/27
f 26/123/27 24/121/27 42/120/27
f 22/118/27 20/116/27 48/115/27
f 20/116/27 18/114/27 50/113/27
f 18/114/27 16/112/27 52/111/27
f 16/112/27 14/130/27 54/109/27
f 14/130/27 12/110/27 54/109/27
f 62/61/67 64/63/67 63/62/67
f 64/63/68 2/131/68 1/64/68
f 63/132/30 1/133/30 3/134/30
f 3/134/30 5/135/30 63/132/30
f 5/135/30 7/67/30 61/66/30
f 63/132/30 5/135/30 61/66/30
f 7/67/30 9/136/30 57/137/30
f 9/136/30 11/138/30 55/139/30
f 11/138/30 13/140/30 55/139/30
f 13/140/30 15/141/30 53/142/30
f 55/139/30 13/140/30 53/142/30
f 15/141/30 17/143/30 51/144/30
f 17/143/30 19/145/30 47/146/30
f 19/145/30 21/147/30 47/146/30
f 21/147/30 23/148/30 45/149/30
f 47/146/30 21/147/30 45/149/30
f 23/148/30 25/150/30 41/151/30
f 25/150/30 27/152/30 39/153/30
f 27/152/30 29/154/30 39/153/30
f 29/154/30 31/155/30 37/156/30
f 39/153/30 29/154/30 37/156/30
f 31/155/30 33/157/30 35/158/30
f 35/158/30 37/156/30 31/155/30
f 39/153/30 41/151/30 25/150/30
f 41/151/30 43/159/30 23/148/30
f 43/159/30 45/149/30 23/148/30
f 47/146/69 49/160/69 17/143/69
f 49/160/70 51/144/70 17/143/70
f 51/144/30 53/142/30 15/141/30
f 55/139/30 57/137/30 9/136/30
f 57/137/30 59/65/30 7/67/30
f 68/68/31 67/161/31 65/69/31
f 70/77/71 15/162/71 69/72/71
f 15/162/32 13/13/32 69/72/32
f 14/71/72 16/73/72 71/163/72
f 16/73/72 72/75/72 71/163/72
f 14/71/73 71/163/73 69/72/73
f 16/73/74 18/164/74 74/74/74
f 17/76/75 15/162/75 70/77/75
f 74/74/76 18/164/76 20/79/76
f 17/76/77 73/78/77 76/81/77
f 75/80/78 20/79/78 77/84/78
f 20/79/78 22/85/78 77/84/78
f 21/14/79 19/82/79 78/83/79
f 19/82/80 76/81/80 78/83/80
f 21/14/79 78/83/79 22/85/79
f 69/165/38 66/166/38 70/167/38
f 66/166/38 65/86/38 73/88/38
f 70/167/38 66/166/38 73/88/38
f 65/86/38 78/168/38 76/87/38
f 66/89/39 69/169/39 71/90/39
f 75/93/27 77/170/27 67/94/27
f 67/94/27 68/171/27 74/92/27
f 68/171/27 71/172/27 72/173/27
f 68/171/27 72/173/27 74/92/27
f 65/95/40 67/174/40 77/96/40
