# Blender v2.92.0 OBJ File: ''
# www.blender.org
o Cube
v 1.000000 1.000000 -1.000000
v 1.000000 -1.000000 -1.000000
v 1.000000 1.000000 1.000000
v 1.000000 -1.000000 1.000000
v -1.000000 1.000000 -1.000000
v -1.000000 -1.000000 -1.000000
v -1.000000 1.000000 1.000000
v -1.000000 -1.000000 1.000000
vt 0.964291 0.342847
vt 0.696835 0.628768
vt 0.702763 0.342856
vt 0.662111 0.675398
vt 0.351266 0.984709
vt 0.350273 0.670058
vt 0.495792 0.136601
vt 0.155919 0.493644
vt 0.151019 0.128976
vt 0.265769 0.396969
vt 0.063730 0.592661
vt 0.067472 0.408343
vt 0.663078 0.346825
vt 0.098683 0.896356
vt 0.345139 0.355299
vt 0.822231 0.528792
vt 0.533643 0.793819
vt 0.535903 0.533329
vt 0.970233 0.638674
vt 0.654562 0.993055
vt 0.502767 0.504981
vt 0.259407 0.574908
vt 0.655166 0.650595
vt 0.817850 0.789312
vn 0.0000 1.0000 0.0000
vn 0.0000 0.0000 1.0000
vn -1.0000 0.0000 0.0000
vn 0.0000 -1.0000 0.0000
vn 1.0000 0.0000 0.0000
vn 0.0000 0.0000 -1.0000
s off
f 5/1/1 3/2/1 1/3/1
f 3/4/2 8/5/2 4/6/2
f 7/7/3 6/8/3 8/9/3
f 2/10/4 8/11/4 6/12/4
f 1/13/5 4/14/5 2/15/5
f 5/16/6 2/17/6 6/18/6
f 5/1/1 7/19/1 3/2/1
f 3/4/2 7/20/2 8/5/2
f 7/7/3 5/21/3 6/8/3
f 2/10/4 4/22/4 8/11/4
f 1/13/5 3/23/5 4/14/5
f 5/16/6 1/24/6 2/17/6
