# Blender v2.92.0 OBJ File: ''
# www.blender.org
o PropellorPart3_Cube.006
v 0.227002 -0.152109 0.135669
v 0.276257 -0.147360 0.135669
v 0.245231 -0.120535 0.135669
v 0.265747 -0.165565 -0.135667
v 0.265747 -0.165565 0.135669
v 0.227002 -0.152109 -0.135667
v 0.276257 -0.147360 -0.135667
v 0.245231 -0.120535 -0.135667
v -0.018229 0.272644 0.135669
v 0.010511 0.312926 0.135669
v -0.010511 0.312926 0.135669
v 0.010511 0.312926 -0.135667
v -0.018229 0.272644 -0.135667
v 0.018229 0.272644 -0.135667
v -0.010511 0.312926 -0.135667
v 0.018229 0.272644 0.135669
v -0.227002 -0.152109 -0.135669
v 0.004140 0.017065 -0.135669
v 0.016849 -0.004947 -0.135669
v -0.245231 -0.120535 0.135669
v -0.265747 -0.165566 0.135669
v -0.227002 -0.152109 0.135669
v -0.276257 -0.147361 -0.135669
v -0.276257 -0.147361 0.135669
v -0.245231 -0.120535 -0.135669
v -0.265747 -0.165566 -0.135669
v 0.012801 -0.007390 -0.135667
v 0.012709 -0.012118 -0.135667
v 0.004967 -0.012118 -0.135667
v -0.008011 0.010360 -0.135667
v -0.004140 0.017065 -0.135667
v -0.001962 0.015863 -0.135667
v -0.000000 -0.015115 -0.135667
v 0.012709 -0.012118 -0.135667
v 0.000000 -0.015115 0.135669
v -0.012801 -0.007390 0.135669
v -0.016849 -0.004947 0.135669
v -0.012801 -0.007390 0.135669
v 0.013090 0.007558 0.135669
v 0.012709 -0.012118 0.135669
v -0.012978 0.001758 0.135669
v -0.016849 -0.004947 0.135669
v -0.004140 0.017065 0.135669
v -0.004140 0.017065 -0.135667
v -0.012709 -0.012118 0.135669
v -0.004967 -0.012118 0.135669
v 0.004140 0.017065 -0.135667
v 0.013090 0.007558 -0.135667
v 0.012978 0.001758 -0.135667
v 0.012801 -0.007390 -0.135667
v -0.013090 0.007558 -0.135667
v -0.013090 0.007558 0.135669
v 0.004967 -0.012118 -0.135667
v -0.004967 -0.012118 0.135669
v -0.012978 0.001758 0.135669
v 0.012978 0.001758 -0.135667
v 0.016849 -0.004947 -0.135667
v -0.012709 -0.012118 0.135669
vt 0.100689 0.898195
vt 0.089487 0.963602
vt 0.089748 0.843888
vt 0.008074 0.999968
vt 0.091903 0.997644
vt 0.000032 0.896395
vt 0.010291 0.963762
vt 0.013755 0.842184
vt 0.625000 0.250000
vt 0.625000 0.500000
vt 0.625000 0.500000
vt 0.092300 0.004804
vt 0.095593 0.001678
vt 0.094742 0.000032
vt 0.875000 0.500000
vt 0.625000 0.750000
vt 0.625000 0.500000
vt 0.096280 0.005411
vt 0.093945 0.002088
vt 0.090004 0.013973
vt 0.095035 0.001361
vt 0.097582 0.014513
vt 0.079300 0.172184
vt 0.074721 0.176831
vt 0.075094 0.172706
vt 0.078941 0.177643
vt 0.081084 0.176410
vt 0.081531 0.176435
vt 0.079611 0.176434
vt 0.079767 0.177323
vt 0.080003 0.177228
vt 0.625000 0.750000
vt 0.625000 1.000000
vt 0.625000 1.000000
vt 0.102081 0.000032
vt 0.102081 0.006714
vt 0.100753 0.000396
vt 0.375000 0.076150
vt 0.375000 0.000000
vt 0.377184 0.000000
vt 0.043254 0.221318
vt 0.045302 0.232698
vt 0.392274 0.500000
vt 0.379151 0.500000
vt 0.375000 0.500000
vt 0.379151 0.500000
vt 0.092779 0.188642
vt 0.097989 0.236252
vt 0.084092 0.178948
vt 0.091035 0.181984
vt 0.097586 0.186609
vt 0.087452 0.173855
vt 0.375000 1.000000
vt 0.375000 1.000000
vt 0.377184 1.000000
vt 0.375000 0.576150
vt 0.375000 0.500000
vt 0.125000 0.750000
vt 0.125000 0.673850
vt 0.125000 0.750000
vt 0.100387 0.198663
vt 0.100689 0.210354
vt 0.076360 0.176139
vt 0.075380 0.176900
vt 0.071705 0.177420
vt 0.076120 0.174839
vt 0.051980 0.186826
vt 0.058173 0.192179
vt 0.375000 0.250000
vt 0.379151 0.250000
vt 0.379151 0.250000
vt 0.379151 0.750000
vt 0.375000 0.750000
vt 0.379151 0.750000
vt 0.079598 0.176511
vt 0.075983 0.176841
vt 0.125000 0.576150
vt 0.125000 0.500000
vt 0.125000 0.500000
vt 0.375000 0.673850
vt 0.375000 0.673850
vt 0.080469 0.178420
vt 0.080179 0.178350
vt 0.392274 1.000000
vt 0.125000 0.500000
vt 0.125000 0.500000
vt 0.125000 0.673850
vt 0.625000 0.250000
vt 0.875000 0.750000
vt 0.079984 0.174523
vt 0.625000 0.750000
vt 0.044808 0.221157
vt 0.047343 0.221347
vt 0.048567 0.221237
vt 0.054189 0.196209
vt 0.387182 0.500000
vt 0.387182 0.500000
vt 0.392274 0.250000
vt 0.375000 0.576150
vt 0.375000 0.250000
vt 0.375000 0.750000
vt 0.125000 0.576150
vt 0.080864 0.178501
vt 0.081787 0.178207
vt 0.081429 0.178321
vt 0.081145 0.178380
vt 0.375000 1.000000
vt 0.379151 1.000000
vt 0.379151 1.000000
vt 0.387182 1.000000
vt 0.387182 1.000000
vt 0.375000 1.000000
vt 0.392274 0.750000
vt 0.125000 0.750000
vt 0.125000 0.750000
vt 0.125000 0.673850
vn -0.0000 -0.0000 1.0000
vn 0.8660 -0.5000 -0.0000
vn -0.0000 0.0000 -1.0000
vn 0.6540 0.7565 -0.0000
vn -0.3281 -0.9446 0.0000
vn 0.0000 1.0000 0.0000
vn -0.9821 0.1882 0.0000
vn 0.9821 0.1882 -0.0000
vn -0.8660 -0.5000 0.0000
vn 0.3281 -0.9446 0.0000
vn -0.6540 0.7565 0.0000
vn -0.5167 -0.8562 0.0000
vn 0.8548 -0.5163 0.0526
vn 0.4957 -0.2991 0.8154
vn 0.0000 0.0000 0.0526
vn 0.4831 0.8756 -0.0000
vn 0.3605 0.6245 0.6928
vn 0.0000 0.0000 0.8960
vn 0.2221 0.3846 0.8960
vn -0.9998 0.0194 0.0000
vn -0.1413 0.3556 -0.9239
vn 0.0004 -0.0192 0.9998
vn 0.0004 -0.0195 0.9998
vn 0.0000 0.0000 0.9998
vn -0.9998 -0.0194 -0.0002
vn -0.9998 -0.0194 0.0000
vn -0.9998 -0.0196 0.0001
vn 0.2315 0.3047 -0.9239
vn -0.1481 -0.3528 -0.9239
vn 0.0000 0.0000 -0.9239
vn 0.3535 -0.1464 -0.9239
vn -0.2844 0.9167 0.2805
vn -0.2810 0.9090 0.3078
vn -0.2873 0.9239 0.2527
vn 0.5167 -0.8562 -0.0000
vn 0.8653 0.5013 0.0000
vn -0.5328 -0.8312 0.1587
vn -0.5039 -0.8532 -0.1346
vn -0.5242 -0.8514 0.0153
vn 0.0000 0.0000 0.7233
vn 0.5912 -0.3568 0.7233
vn 0.7936 -0.4789 -0.3753
vn 0.7871 -0.4749 -0.3937
vn 0.0000 0.0000 0.7105
vn 0.6025 -0.3636 0.7105
vn 0.0000 0.0000 0.8071
vn 0.2226 0.5468 0.8071
vn 0.1450 0.3561 0.9231
vn 0.9998 -0.0194 -0.0000
vn 0.0000 0.0000 0.9988
vn 0.0464 -0.0178 0.9988
vn 0.0456 -0.0175 0.9988
vn -0.9998 -0.0196 0.0000
vn -0.1413 -0.3556 -0.9239
vn -0.3535 0.1464 -0.9239
vn -0.4783 0.8782 -0.0000
vn -0.4966 0.8679 -0.0082
vn -0.4966 0.8680 -0.0081
vn -0.4966 0.8679 -0.0081
vn -0.4831 0.8756 0.0000
vn 0.5110 -0.8596 0.0000
vn 0.5056 -0.7990 0.3256
vn 0.5055 -0.7988 0.3261
vn 0.5058 -0.7991 0.3250
vn 0.5779 -0.4912 -0.6518
vn 0.5881 -0.5257 -0.6147
vn 0.5962 -0.5563 -0.5788
vn 0.5011 -0.8461 -0.1819
vn 0.5012 -0.8463 -0.1803
vn 0.5012 -0.8462 -0.1811
vn 0.8594 0.5114 0.0000
vn 0.8270 0.4511 0.3355
vn 0.8280 0.4518 0.3323
vn 0.8275 0.4513 0.3339
s 1
f 1/1/1 2/2/1 3/3/1
f 4/4/2 2/2/2 5/5/2
f 6/6/3 7/7/3 4/4/3
f 3/3/4 7/7/4 8/8/4
f 6/9/5 5/10/5 1/11/5
f 9/12/1 10/13/1 11/14/1
f 12/15/6 11/16/6 10/17/6
f 13/18/3 12/19/3 14/20/3
f 13/18/7 11/14/7 15/21/7
f 14/20/8 10/13/8 16/22/8
f 17/23/3 18/24/3 19/25/3
f 20/26/1 21/27/1 22/28/1
f 23/29/9 21/27/9 24/30/9
f 17/23/3 23/29/3 25/31/3
f 22/32/10 26/33/10 17/34/10
f 25/31/11 24/30/11 20/26/11
f 27/35/3 28/36/3 29/37/3
f 30/38/3 31/39/3 32/40/3
f 33/41/3 34/42/3 8/8/3
f 35/43/12 6/9/12 1/11/12
f 36/44/13 37/45/14 38/46/15
f 3/3/1 39/47/1 40/48/1
f 41/49/1 42/50/1 36/51/1
f 39/47/1 43/52/1 41/49/1
f 8/8/16 39/47/16 3/3/16
f 31/53/1 44/54/1 32/55/1
f 41/56/17 37/45/18 42/57/19
f 31/58/1 30/59/1 44/60/1
f 9/12/1 41/49/1 43/52/1
f 45/61/1 46/62/1 36/51/1
f 30/63/3 32/64/3 47/65/3
f 14/20/3 47/65/3 44/66/3
f 48/67/20 49/68/20 16/22/20
f 34/69/21 27/70/1 50/71/1
f 38/72/22 45/73/23 36/74/24
f 9/12/25 51/75/26 52/76/27
f 53/77/28 28/78/29 34/79/21
f 45/73/30 54/80/30 46/81/31
f 51/75/32 30/63/33 25/31/34
f 37/82/1 55/83/1 20/26/1
f 22/32/35 17/34/35 33/84/35
f 18/85/36 47/86/36 56/87/36
f 1/1/1 5/5/1 2/2/1
f 4/4/2 7/7/2 2/2/2
f 6/6/3 8/8/3 7/7/3
f 3/3/4 2/2/4 7/7/4
f 6/9/5 4/88/5 5/10/5
f 9/12/1 16/22/1 10/13/1
f 12/15/6 15/89/6 11/16/6
f 13/18/3 15/21/3 12/19/3
f 13/18/7 9/12/7 11/14/7
f 14/20/8 12/19/8 10/13/8
f 17/23/3 25/31/3 18/24/3
f 20/26/1 24/30/1 21/27/1
f 23/29/9 26/90/9 21/27/9
f 17/23/3 26/90/3 23/29/3
f 22/32/10 21/91/10 26/33/10
f 25/31/11 23/29/11 24/30/11
f 33/41/3 53/92/3 34/42/3
f 34/42/3 50/93/3 57/94/3
f 57/94/3 56/95/3 48/67/3
f 48/67/3 8/8/3 57/94/3
f 8/8/3 6/6/3 33/41/3
f 57/94/3 8/8/3 34/42/3
f 1/11/37 46/96/38 35/43/39
f 46/96/40 54/97/41 35/43/42
f 35/43/12 33/98/12 6/9/12
f 36/44/43 42/57/44 37/45/45
f 46/62/1 1/1/1 40/48/1
f 1/1/1 3/3/1 40/48/1
f 41/49/1 36/51/1 39/47/1
f 36/51/1 46/62/1 39/47/1
f 46/62/1 40/48/1 39/47/1
f 8/8/16 48/67/16 39/47/16
f 41/56/46 55/99/47 37/45/48
f 43/52/1 39/47/1 16/22/1
f 16/22/1 9/12/1 43/52/1
f 30/63/3 51/75/3 44/66/3
f 51/75/3 13/18/3 14/20/3
f 44/66/3 51/75/3 14/20/3
f 14/20/3 49/68/3 47/65/3
f 47/65/3 32/64/3 44/66/3
f 48/67/1 56/95/1 49/68/1
f 49/68/49 14/20/49 16/22/49
f 16/22/49 39/47/49 48/67/49
f 34/69/21 28/100/29 27/70/1
f 38/72/22 58/101/24 45/73/23
f 55/83/50 41/49/51 52/76/52
f 41/49/53 9/12/25 52/76/27
f 9/12/25 13/18/26 51/75/26
f 53/77/28 29/102/54 28/78/29
f 45/73/30 58/101/55 54/80/30
f 47/65/56 18/24/56 30/63/56
f 18/24/57 25/31/58 30/63/59
f 25/31/60 20/26/60 51/75/60
f 20/26/60 52/76/60 51/75/60
f 55/83/1 52/76/1 20/26/1
f 20/26/1 22/28/1 38/103/1
f 22/28/1 35/104/1 54/105/1
f 58/106/1 22/28/1 54/105/1
f 58/106/1 38/103/1 22/28/1
f 38/103/1 37/82/1 20/26/1
f 57/107/1 50/108/1 27/109/1
f 29/110/54 53/111/28 33/84/1
f 19/112/61 57/107/61 27/109/61
f 27/109/62 29/110/63 19/112/64
f 29/110/65 33/84/66 17/34/67
f 17/34/68 19/112/69 29/110/70
f 35/113/35 22/32/35 33/84/35
f 57/114/71 19/115/71 56/87/71
f 19/115/72 18/85/73 56/87/74
f 47/86/1 49/116/1 56/87/1
