# Blender v2.92.0 OBJ File: ''
# www.blender.org
o L_Leg_Cube.005
v -0.224680 -1.838855 -1.537170
v -0.224680 -0.139802 0.161882
v -0.224680 -1.521109 -1.555281
v -0.224680 0.177943 -0.155863
v 0.224680 -1.838855 -1.537170
v 0.224680 -0.139802 0.161882
v 0.224680 -1.521109 -1.555281
v 0.224680 0.177943 -0.155863
vt 0.625000 0.000000
vt 0.375000 0.250000
vt 0.375000 0.000000
vt 0.625000 0.250000
vt 0.375000 0.500000
vt 0.625000 0.750000
vt 0.375000 0.750000
vt 0.375000 1.000000
vt 0.125000 0.750000
vt 0.125000 0.500000
vt 0.875000 0.500000
vt 0.625000 0.500000
vt 0.625000 1.000000
vt 0.875000 0.750000
vn -1.0000 -0.0000 0.0000
vn 0.0000 0.6358 -0.7719
vn 1.0000 0.0000 0.0000
vn 0.0000 -0.7071 0.7071
vn 0.0000 -0.0569 -0.9984
vn 0.0000 0.7071 0.7071
s off
f 2/1/1 3/2/1 1/3/1
f 4/4/2 7/5/2 3/2/2
f 7/5/3 6/6/3 5/7/3
f 6/6/4 1/8/4 5/7/4
f 7/5/5 1/9/5 3/10/5
f 4/11/6 6/6/6 8/12/6
f 2/1/1 4/4/1 3/2/1
f 4/4/2 8/12/2 7/5/2
f 7/5/3 8/12/3 6/6/3
f 6/6/4 2/13/4 1/8/4
f 7/5/5 5/7/5 1/9/5
f 4/11/6 2/14/6 6/6/6
